<svg xmlns="http://www.w3.org/2000/svg" xmlns:xlink="http://www.w3.org/1999/xlink" width="140" zoomAndPan="magnify" viewBox="0 0 104.88 38.999999" height="52" preserveAspectRatio="xMidYMid meet" version="1.0"><defs><filter x="0%" y="0%" width="100%" height="100%" id="df6723375b"><feColorMatrix values="0 0 0 0 1 0 0 0 0 1 0 0 0 0 1 0 0 0 1 0" color-interpolation-filters="sRGB"/></filter><g/><clipPath id="6f9d48aabc"><path d="M 21 28 L 69 28 L 69 38.976562 L 21 38.976562 Z M 21 28 " clip-rule="nonzero"/></clipPath><mask id="33ffbae9ad"><g filter="url(#df6723375b)"><rect x="-10.488" width="125.856" fill="#000000" y="-3.9" height="46.799999" fill-opacity="0.25"/></g></mask><clipPath id="5cd2a24b8f"><rect x="0" width="48" y="0" height="11"/></clipPath></defs><g fill="#f0f0f0" fill-opacity="1"><g transform="translate(0.000000000000021201, 26.746075)"><g><path d="M 12.078125 -3.046875 L 17.828125 -3.046875 L 17.828125 0 L 14.96875 0 L 14.96875 0.515625 C 14.894531 1.085938 14.773438 1.585938 14.609375 2.015625 C 14.359375 2.484375 14.070312 2.875 13.75 3.1875 C 13.4375 3.5 13.023438 3.769531 12.515625 4 C 12.046875 4.238281 11.554688 4.359375 11.046875 4.359375 L 4.671875 4.359375 C 4.085938 4.285156 3.597656 4.164062 3.203125 4 C 2.679688 3.769531 2.257812 3.5 1.9375 3.1875 C 1.625 2.875 1.34375 2.484375 1.09375 2.015625 C 0.914062 1.554688 0.828125 1.054688 0.828125 0.515625 L 0.828125 -3.140625 L 3.875 -3.140625 L 3.875 0.515625 C 3.875 1.097656 4.140625 1.390625 4.671875 1.390625 L 11.046875 1.390625 C 11.566406 1.390625 11.828125 1.097656 11.828125 0.515625 L 11.828125 0 L 5.890625 -0.78125 L 7.46875 -3.75 Z M 7.71875 8.765625 L 5.03125 8.765625 L 5.03125 5.984375 L 7.71875 5.984375 Z M 11.125 8.765625 L 8.421875 8.765625 L 8.421875 5.984375 L 11.125 5.984375 Z M 11.125 8.765625 "/></g></g></g><g fill="#f0f0f0" fill-opacity="1"><g transform="translate(17.412942, 26.746075)"><g><path d="M 12.390625 0 L -0.421875 0 L -0.421875 -3.046875 L 2.546875 -3.046875 L 2.546875 -6.109375 C 2.546875 -6.628906 2.628906 -7.117188 2.796875 -7.578125 C 3.035156 -8.054688 3.328125 -8.492188 3.671875 -8.890625 C 4.046875 -9.265625 4.457031 -9.523438 4.90625 -9.671875 C 5.394531 -9.910156 5.921875 -10.03125 6.484375 -10.03125 L 12.390625 -10.03125 Z M 9.265625 -6.890625 L 6.484375 -6.890625 C 6.191406 -6.890625 5.925781 -6.773438 5.6875 -6.546875 C 5.632812 -6.441406 5.609375 -6.296875 5.609375 -6.109375 L 5.609375 -3.046875 L 9.265625 -3.046875 Z M 9.265625 -6.890625 "/></g></g></g><g fill="#f0f0f0" fill-opacity="1"><g transform="translate(30.633496, 26.746075)"><g><path d="M 3.875 -3.046875 L 6.75 -3.046875 L 6.75 0 L 0.828125 0 L 0.828125 -14.734375 L 3.875 -14.734375 Z M 3.875 -3.046875 "/></g></g></g><g fill="#f0f0f0" fill-opacity="1"><g transform="translate(36.963589, 26.746075)"><g><path d="M 10.125 -10.03125 L 11 -10.03125 C 11.507812 -10.03125 12.003906 -9.910156 12.484375 -9.671875 C 13.492188 -9.359375 14.191406 -8.660156 14.578125 -7.578125 C 14.804688 -7.109375 14.921875 -6.617188 14.921875 -6.109375 L 14.921875 -3.046875 L 17.8125 -3.046875 L 17.8125 0 L -0.421875 0 L -0.421875 -3.046875 L 2.546875 -3.046875 L 2.546875 -6.109375 C 2.546875 -6.628906 2.628906 -7.117188 2.796875 -7.578125 C 3.035156 -8.054688 3.328125 -8.492188 3.671875 -8.890625 C 4.046875 -9.265625 4.457031 -9.523438 4.90625 -9.671875 C 5.394531 -9.910156 5.882812 -10.03125 6.375 -10.03125 L 7.15625 -10.03125 L 7.15625 -11.0625 L 10.125 -11.0625 Z M 7.15625 -6.890625 L 6.375 -6.890625 C 6.03125 -6.890625 5.800781 -6.773438 5.6875 -6.546875 C 5.632812 -6.441406 5.609375 -6.296875 5.609375 -6.109375 L 5.609375 -3.046875 L 7.15625 -3.046875 Z M 10.125 -6.890625 L 10.125 -3.046875 L 11.875 -3.046875 L 11.875 -6.109375 C 11.875 -6.285156 11.816406 -6.429688 11.703125 -6.546875 C 11.554688 -6.773438 11.320312 -6.890625 11 -6.890625 Z M 10.125 -6.890625 "/></g></g></g><g fill="#f0f0f0" fill-opacity="1"><g transform="translate(54.355769, 26.746075)"><g><path d="M 12.390625 0 L -0.421875 0 L -0.421875 -3.046875 L 2.546875 -3.046875 L 2.546875 -6.109375 C 2.546875 -6.628906 2.628906 -7.117188 2.796875 -7.578125 C 3.035156 -8.054688 3.328125 -8.492188 3.671875 -8.890625 C 4.046875 -9.265625 4.457031 -9.523438 4.90625 -9.671875 C 5.394531 -9.910156 5.921875 -10.03125 6.484375 -10.03125 L 12.390625 -10.03125 Z M 9.265625 -6.890625 L 6.484375 -6.890625 C 6.191406 -6.890625 5.925781 -6.773438 5.6875 -6.546875 C 5.632812 -6.441406 5.609375 -6.296875 5.609375 -6.109375 L 5.609375 -3.046875 L 9.265625 -3.046875 Z M 9.265625 -6.890625 "/></g></g></g><g clip-path="url(#6f9d48aabc)"><g mask="url(#33ffbae9ad)"><g transform="matrix(1, 0, 0, 1, 21, 28)"><g clip-path="url(#5cd2a24b8f)"><g fill="#ffffff" fill-opacity="1"><g transform="translate(0.919945, 7.514137)"><g><path d="M 2.484375 0.078125 C 2.210938 0.078125 1.972656 0.0234375 1.765625 -0.078125 C 1.554688 -0.191406 1.394531 -0.335938 1.28125 -0.515625 L 1.203125 -0.5 L 1.203125 0 L 0.65625 0 L 0.65625 -5.25 L 1.203125 -5.25 L 1.203125 -3.1875 L 1.28125 -3.171875 C 1.5625 -3.597656 1.972656 -3.8125 2.515625 -3.8125 C 2.828125 -3.8125 3.097656 -3.738281 3.328125 -3.59375 C 3.554688 -3.457031 3.734375 -3.242188 3.859375 -2.953125 C 3.992188 -2.660156 4.0625 -2.300781 4.0625 -1.875 C 4.0625 -1.445312 3.992188 -1.085938 3.859375 -0.796875 C 3.722656 -0.503906 3.535156 -0.285156 3.296875 -0.140625 C 3.066406 0.00390625 2.796875 0.078125 2.484375 0.078125 Z M 2.359375 -0.421875 C 3.109375 -0.421875 3.484375 -0.90625 3.484375 -1.875 C 3.484375 -2.375 3.382812 -2.738281 3.1875 -2.96875 C 2.988281 -3.207031 2.710938 -3.328125 2.359375 -3.328125 C 2.003906 -3.328125 1.722656 -3.207031 1.515625 -2.96875 C 1.304688 -2.726562 1.203125 -2.363281 1.203125 -1.875 C 1.203125 -1.382812 1.304688 -1.019531 1.515625 -0.78125 C 1.722656 -0.539062 2.003906 -0.421875 2.359375 -0.421875 Z M 2.359375 -0.421875 "/></g></g></g><g fill="#ffffff" fill-opacity="1"><g transform="translate(5.378697, 7.514137)"><g><path d="M 0.75 1.59375 C 0.625 1.59375 0.503906 1.582031 0.390625 1.5625 C 0.285156 1.539062 0.191406 1.507812 0.109375 1.46875 L 0.21875 1.03125 L 0.28125 1.015625 C 0.332031 1.035156 0.394531 1.054688 0.46875 1.078125 C 0.550781 1.097656 0.640625 1.109375 0.734375 1.109375 C 0.878906 1.109375 1 1.085938 1.09375 1.046875 C 1.195312 1.003906 1.285156 0.9375 1.359375 0.84375 C 1.429688 0.75 1.5 0.617188 1.5625 0.453125 L 1.6875 0.09375 L 0.1875 -3.75 L 0.78125 -3.75 L 1.96875 -0.6875 L 2.03125 -0.6875 L 3.171875 -3.75 L 3.734375 -3.75 L 2.0625 0.59375 C 1.96875 0.832031 1.859375 1.023438 1.734375 1.171875 C 1.617188 1.316406 1.484375 1.421875 1.328125 1.484375 C 1.171875 1.554688 0.976562 1.59375 0.75 1.59375 Z M 0.75 1.59375 "/></g></g></g><g fill="#ffffff" fill-opacity="1"><g transform="translate(9.319067, 7.514137)"><g/></g></g><g fill="#ffffff" fill-opacity="1"><g transform="translate(11.023469, 7.514137)"><g><path d="M 1.453125 0.078125 C 1.210938 0.078125 1.003906 0.0351562 0.828125 -0.046875 C 0.660156 -0.140625 0.523438 -0.269531 0.421875 -0.4375 C 0.328125 -0.613281 0.28125 -0.820312 0.28125 -1.0625 C 0.28125 -1.289062 0.328125 -1.476562 0.421875 -1.625 C 0.523438 -1.769531 0.675781 -1.890625 0.875 -1.984375 C 1.070312 -2.085938 1.332031 -2.164062 1.65625 -2.21875 C 1.875 -2.25 2.039062 -2.285156 2.15625 -2.328125 C 2.269531 -2.378906 2.347656 -2.429688 2.390625 -2.484375 C 2.429688 -2.535156 2.453125 -2.601562 2.453125 -2.6875 C 2.453125 -2.8125 2.410156 -2.90625 2.328125 -2.96875 C 2.242188 -3.03125 2.109375 -3.0625 1.921875 -3.0625 C 1.710938 -3.0625 1.507812 -3.015625 1.3125 -2.921875 C 1.125 -2.828125 0.960938 -2.703125 0.828125 -2.546875 L 0.765625 -2.546875 L 0.375 -3.140625 C 0.5625 -3.359375 0.789062 -3.523438 1.0625 -3.640625 C 1.34375 -3.753906 1.644531 -3.8125 1.96875 -3.8125 C 2.457031 -3.8125 2.8125 -3.707031 3.03125 -3.5 C 3.257812 -3.289062 3.375 -2.992188 3.375 -2.609375 L 3.375 -0.984375 C 3.375 -0.804688 3.445312 -0.71875 3.59375 -0.71875 C 3.644531 -0.71875 3.703125 -0.726562 3.765625 -0.75 L 3.8125 -0.75 L 3.875 -0.09375 C 3.820312 -0.0507812 3.75 -0.0195312 3.65625 0 C 3.5625 0.0195312 3.457031 0.03125 3.34375 0.03125 C 3.125 0.03125 2.953125 -0.0078125 2.828125 -0.09375 C 2.703125 -0.1875 2.613281 -0.320312 2.5625 -0.5 L 2.484375 -0.515625 C 2.296875 -0.117188 1.953125 0.078125 1.453125 0.078125 Z M 1.765625 -0.625 C 1.972656 -0.625 2.140625 -0.695312 2.265625 -0.84375 C 2.398438 -0.988281 2.46875 -1.191406 2.46875 -1.453125 L 2.46875 -1.84375 L 2.40625 -1.859375 C 2.351562 -1.804688 2.28125 -1.765625 2.1875 -1.734375 C 2.09375 -1.703125 1.960938 -1.675781 1.796875 -1.65625 C 1.585938 -1.613281 1.4375 -1.550781 1.34375 -1.46875 C 1.257812 -1.382812 1.21875 -1.269531 1.21875 -1.125 C 1.21875 -0.957031 1.265625 -0.832031 1.359375 -0.75 C 1.453125 -0.664062 1.585938 -0.625 1.765625 -0.625 Z M 1.765625 -0.625 "/></g></g></g><g fill="#ffffff" fill-opacity="1"><g transform="translate(14.963839, 7.514137)"><g><path d="M 2.625 0.078125 C 2.144531 0.078125 1.785156 -0.101562 1.546875 -0.46875 L 1.484375 -0.453125 L 1.484375 0 L 0.546875 0 L 0.546875 -5.25 L 1.484375 -5.25 L 1.484375 -3.296875 L 1.546875 -3.296875 C 1.679688 -3.472656 1.832031 -3.601562 2 -3.6875 C 2.175781 -3.769531 2.390625 -3.8125 2.640625 -3.8125 C 2.941406 -3.8125 3.203125 -3.738281 3.421875 -3.59375 C 3.648438 -3.457031 3.828125 -3.242188 3.953125 -2.953125 C 4.085938 -2.660156 4.15625 -2.300781 4.15625 -1.875 C 4.15625 -1.445312 4.085938 -1.085938 3.953125 -0.796875 C 3.828125 -0.503906 3.644531 -0.285156 3.40625 -0.140625 C 3.175781 0.00390625 2.914062 0.078125 2.625 0.078125 Z M 2.328125 -0.71875 C 2.609375 -0.71875 2.820312 -0.8125 2.96875 -1 C 3.113281 -1.1875 3.1875 -1.476562 3.1875 -1.875 C 3.1875 -2.269531 3.113281 -2.554688 2.96875 -2.734375 C 2.820312 -2.921875 2.609375 -3.015625 2.328125 -3.015625 C 2.066406 -3.015625 1.859375 -2.921875 1.703125 -2.734375 C 1.546875 -2.546875 1.46875 -2.257812 1.46875 -1.875 C 1.46875 -1.488281 1.546875 -1.195312 1.703125 -1 C 1.859375 -0.8125 2.066406 -0.71875 2.328125 -0.71875 Z M 2.328125 -0.71875 "/></g></g></g><g fill="#ffffff" fill-opacity="1"><g transform="translate(19.439531, 7.514137)"><g><path d="M 1.84375 0.078125 C 1.550781 0.078125 1.289062 0.00390625 1.0625 -0.140625 C 0.832031 -0.285156 0.65625 -0.503906 0.53125 -0.796875 C 0.40625 -1.085938 0.34375 -1.445312 0.34375 -1.875 C 0.34375 -2.300781 0.40625 -2.660156 0.53125 -2.953125 C 0.664062 -3.242188 0.847656 -3.457031 1.078125 -3.59375 C 1.316406 -3.738281 1.585938 -3.8125 1.890625 -3.8125 C 2.128906 -3.8125 2.332031 -3.769531 2.5 -3.6875 C 2.675781 -3.613281 2.820312 -3.492188 2.9375 -3.328125 L 3.015625 -3.34375 L 3.015625 -5.25 L 3.953125 -5.25 L 3.953125 0 L 3.015625 0 L 3.015625 -0.484375 L 2.9375 -0.5 C 2.832031 -0.320312 2.6875 -0.179688 2.5 -0.078125 C 2.320312 0.0234375 2.101562 0.078125 1.84375 0.078125 Z M 2.15625 -0.71875 C 2.414062 -0.71875 2.625 -0.8125 2.78125 -1 C 2.9375 -1.195312 3.015625 -1.488281 3.015625 -1.875 C 3.015625 -2.257812 2.9375 -2.546875 2.78125 -2.734375 C 2.625 -2.921875 2.414062 -3.015625 2.15625 -3.015625 C 1.875 -3.015625 1.660156 -2.921875 1.515625 -2.734375 C 1.367188 -2.554688 1.296875 -2.269531 1.296875 -1.875 C 1.296875 -1.476562 1.367188 -1.1875 1.515625 -1 C 1.660156 -0.8125 1.875 -0.71875 2.15625 -0.71875 Z M 2.15625 -0.71875 "/></g></g></g><g fill="#ffffff" fill-opacity="1"><g transform="translate(23.918611, 7.514137)"><g><path d="M 1.75 0.078125 C 1.5 0.078125 1.265625 0.046875 1.046875 -0.015625 C 0.835938 -0.078125 0.65625 -0.160156 0.5 -0.265625 C 0.351562 -0.367188 0.242188 -0.488281 0.171875 -0.625 L 0.6875 -1.1875 L 0.765625 -1.1875 C 0.890625 -1.019531 1.035156 -0.894531 1.203125 -0.8125 C 1.367188 -0.726562 1.554688 -0.6875 1.765625 -0.6875 C 1.941406 -0.6875 2.078125 -0.71875 2.171875 -0.78125 C 2.265625 -0.851562 2.3125 -0.945312 2.3125 -1.0625 C 2.3125 -1.164062 2.273438 -1.25 2.203125 -1.3125 C 2.140625 -1.375 2.035156 -1.421875 1.890625 -1.453125 L 1.390625 -1.578125 C 1.015625 -1.671875 0.742188 -1.804688 0.578125 -1.984375 C 0.410156 -2.160156 0.328125 -2.390625 0.328125 -2.671875 C 0.328125 -2.910156 0.382812 -3.113281 0.5 -3.28125 C 0.613281 -3.457031 0.78125 -3.585938 1 -3.671875 C 1.21875 -3.765625 1.472656 -3.8125 1.765625 -3.8125 C 2.097656 -3.8125 2.375 -3.765625 2.59375 -3.671875 C 2.820312 -3.578125 2.992188 -3.445312 3.109375 -3.28125 L 2.609375 -2.734375 L 2.546875 -2.734375 C 2.441406 -2.847656 2.320312 -2.929688 2.1875 -2.984375 C 2.0625 -3.046875 1.921875 -3.078125 1.765625 -3.078125 C 1.390625 -3.078125 1.203125 -2.960938 1.203125 -2.734375 C 1.203125 -2.628906 1.234375 -2.546875 1.296875 -2.484375 C 1.367188 -2.429688 1.492188 -2.382812 1.671875 -2.34375 L 2.125 -2.234375 C 2.507812 -2.160156 2.789062 -2.03125 2.96875 -1.84375 C 3.144531 -1.664062 3.234375 -1.425781 3.234375 -1.125 C 3.234375 -0.882812 3.171875 -0.671875 3.046875 -0.484375 C 2.929688 -0.304688 2.757812 -0.164062 2.53125 -0.0625 C 2.3125 0.03125 2.050781 0.078125 1.75 0.078125 Z M 1.75 0.078125 "/></g></g></g><g fill="#ffffff" fill-opacity="1"><g transform="translate(27.364318, 7.514137)"><g><path d="M 0.828125 1.59375 C 0.671875 1.59375 0.523438 1.578125 0.390625 1.546875 C 0.265625 1.523438 0.160156 1.492188 0.078125 1.453125 L 0.21875 0.6875 L 0.28125 0.671875 C 0.34375 0.703125 0.414062 0.722656 0.5 0.734375 C 0.582031 0.753906 0.664062 0.765625 0.75 0.765625 C 0.90625 0.765625 1.03125 0.742188 1.125 0.703125 C 1.226562 0.671875 1.316406 0.609375 1.390625 0.515625 C 1.460938 0.421875 1.523438 0.289062 1.578125 0.125 L 0.078125 -3.75 L 1.0625 -3.75 L 2 -1.140625 L 2.078125 -1.140625 L 2.984375 -3.75 L 3.9375 -3.75 L 2.4375 0.234375 C 2.3125 0.554688 2.175781 0.8125 2.03125 1 C 1.894531 1.195312 1.726562 1.34375 1.53125 1.4375 C 1.332031 1.539062 1.097656 1.59375 0.828125 1.59375 Z M 0.828125 1.59375 "/></g></g></g><g fill="#ffffff" fill-opacity="1"><g transform="translate(31.375838, 7.514137)"><g><path d="M 0.546875 0 L 0.546875 -3.75 L 1.4375 -3.75 L 1.4375 -3.25 L 1.515625 -3.234375 C 1.640625 -3.429688 1.78125 -3.578125 1.9375 -3.671875 C 2.101562 -3.765625 2.316406 -3.8125 2.578125 -3.8125 C 2.859375 -3.8125 3.082031 -3.753906 3.25 -3.640625 C 3.425781 -3.535156 3.550781 -3.375 3.625 -3.15625 L 3.703125 -3.15625 C 3.816406 -3.382812 3.960938 -3.550781 4.140625 -3.65625 C 4.328125 -3.757812 4.554688 -3.8125 4.828125 -3.8125 C 5.609375 -3.8125 6 -3.378906 6 -2.515625 L 6 0 L 5.0625 0 L 5.0625 -2.40625 C 5.0625 -2.625 5.015625 -2.78125 4.921875 -2.875 C 4.835938 -2.96875 4.703125 -3.015625 4.515625 -3.015625 C 3.992188 -3.015625 3.734375 -2.671875 3.734375 -1.984375 L 3.734375 0 L 2.796875 0 L 2.796875 -2.40625 C 2.796875 -2.625 2.75 -2.78125 2.65625 -2.875 C 2.570312 -2.96875 2.4375 -3.015625 2.25 -3.015625 C 2.007812 -3.015625 1.820312 -2.929688 1.6875 -2.765625 C 1.550781 -2.609375 1.484375 -2.351562 1.484375 -2 L 1.484375 0 Z M 0.546875 0 "/></g></g></g><g fill="#ffffff" fill-opacity="1"><g transform="translate(37.84035, 7.514137)"><g><path d="M 2.171875 0.078125 C 1.804688 0.078125 1.484375 0.00390625 1.203125 -0.140625 C 0.929688 -0.296875 0.71875 -0.519531 0.5625 -0.8125 C 0.414062 -1.101562 0.34375 -1.457031 0.34375 -1.875 C 0.34375 -2.28125 0.414062 -2.628906 0.5625 -2.921875 C 0.71875 -3.210938 0.929688 -3.429688 1.203125 -3.578125 C 1.484375 -3.734375 1.804688 -3.8125 2.171875 -3.8125 C 2.535156 -3.8125 2.859375 -3.734375 3.140625 -3.578125 C 3.421875 -3.429688 3.632812 -3.210938 3.78125 -2.921875 C 3.9375 -2.628906 4.015625 -2.28125 4.015625 -1.875 C 4.015625 -1.457031 3.9375 -1.101562 3.78125 -0.8125 C 3.632812 -0.519531 3.421875 -0.296875 3.140625 -0.140625 C 2.859375 0.00390625 2.535156 0.078125 2.171875 0.078125 Z M 2.171875 -0.71875 C 2.753906 -0.71875 3.046875 -1.101562 3.046875 -1.875 C 3.046875 -2.269531 2.96875 -2.554688 2.8125 -2.734375 C 2.664062 -2.921875 2.453125 -3.015625 2.171875 -3.015625 C 1.585938 -3.015625 1.296875 -2.632812 1.296875 -1.875 C 1.296875 -1.101562 1.585938 -0.71875 2.171875 -0.71875 Z M 2.171875 -0.71875 "/></g></g></g><g fill="#ffffff" fill-opacity="1"><g transform="translate(42.183905, 7.514137)"><g><path d="M 0.546875 0 L 0.546875 -5.25 L 1.484375 -5.25 L 1.484375 -3.25 L 1.546875 -3.25 C 1.671875 -3.425781 1.820312 -3.5625 2 -3.65625 C 2.1875 -3.757812 2.410156 -3.8125 2.671875 -3.8125 C 3.492188 -3.8125 3.90625 -3.34375 3.90625 -2.40625 L 3.90625 0 L 2.96875 0 L 2.96875 -2.296875 C 2.96875 -2.546875 2.914062 -2.726562 2.8125 -2.84375 C 2.707031 -2.957031 2.546875 -3.015625 2.328125 -3.015625 C 2.066406 -3.015625 1.859375 -2.925781 1.703125 -2.75 C 1.554688 -2.582031 1.484375 -2.3125 1.484375 -1.9375 L 1.484375 0 Z M 0.546875 0 "/></g></g></g></g></g></g></g><path fill="#5271ff" d="M 92.449219 4.621094 L 80.015625 4.621094 C 74.871094 4.621094 70.691406 8.804688 70.691406 13.945312 L 70.691406 34.148438 C 70.691406 34.355469 70.730469 34.554688 70.808594 34.742188 C 70.886719 34.933594 71 35.101562 71.144531 35.25 C 71.292969 35.394531 71.460938 35.507812 71.648438 35.585938 C 71.839844 35.664062 72.039062 35.703125 72.246094 35.703125 L 92.449219 35.703125 C 97.589844 35.703125 101.773438 31.519531 101.773438 26.378906 L 101.773438 13.945312 C 101.773438 8.804688 97.589844 4.621094 92.449219 4.621094 Z M 98.664062 26.378906 C 98.664062 29.808594 95.875 32.59375 92.449219 32.59375 L 73.800781 32.59375 L 73.800781 13.945312 C 73.800781 10.519531 76.585938 7.730469 80.015625 7.730469 L 92.449219 7.730469 C 95.875 7.730469 98.664062 10.519531 98.664062 13.945312 Z M 98.664062 26.378906 " fill-opacity="1" fill-rule="nonzero"/><path fill="#5271ff" d="M 84.675781 22.628906 L 81.113281 19.0625 L 78.917969 21.261719 L 84.675781 27.023438 L 94.324219 17.375 L 92.125 15.179688 Z M 84.675781 22.628906 " fill-opacity="1" fill-rule="nonzero"/></svg>