<svg xmlns="http://www.w3.org/2000/svg" xmlns:xlink="http://www.w3.org/1999/xlink" width="150" zoomAndPan="magnify" viewBox="0 0 112.5 37.5" height="50" preserveAspectRatio="xMidYMid meet" version="1.0"><defs><filter x="0%" y="0%" width="100%" height="100%" id="a3db9c2ebd"><feColorMatrix values="0 0 0 0 1 0 0 0 0 1 0 0 0 0 1 0 0 0 1 0" color-interpolation-filters="sRGB"/></filter><g/><clipPath id="7828788183"><path d="M 81.921875 7.320312 L 111.511719 7.320312 L 111.511719 36.925781 L 81.921875 36.925781 Z M 81.921875 7.320312 " clip-rule="nonzero"/></clipPath><clipPath id="92ea8cbd8a"><path d="M 18 27 L 78 27 L 78 37.007812 L 18 37.007812 Z M 18 27 " clip-rule="nonzero"/></clipPath><mask id="5ac1c0b5b4"><g filter="url(#a3db9c2ebd)"><rect x="-11.25" width="135" fill="#000000" y="-3.75" height="45" fill-opacity="0.25"/></g></mask><clipPath id="8cc080352d"><path d="M 1 0.238281 L 6 0.238281 L 6 8 L 1 8 Z M 1 0.238281 " clip-rule="nonzero"/></clipPath><clipPath id="6008fbeda4"><path d="M 18 0.238281 L 24 0.238281 L 24 8 L 18 8 Z M 18 0.238281 " clip-rule="nonzero"/></clipPath><clipPath id="18d9738603"><path d="M 24 0.238281 L 29 0.238281 L 29 8 L 24 8 Z M 24 0.238281 " clip-rule="nonzero"/></clipPath><clipPath id="b6e917d1d8"><path d="M 53 0.238281 L 58 0.238281 L 58 8 L 53 8 Z M 53 0.238281 " clip-rule="nonzero"/></clipPath><clipPath id="d703403516"><rect x="0" width="60" y="0" height="11"/></clipPath></defs><g clip-path="url(#7828788183)"><path fill="#5271ff" d="M 109.167969 8.574219 C 107.902344 7.3125 105.859375 7.3125 104.59375 8.574219 L 102.851562 10.308594 L 108.507812 15.964844 L 110.25 14.226562 C 111.515625 12.960938 111.515625 10.914062 110.25 9.652344 Z M 91.882812 21.285156 C 91.527344 21.640625 91.257812 22.074219 91.101562 22.550781 L 89.390625 27.683594 C 89.222656 28.179688 89.355469 28.730469 89.726562 29.105469 C 90.097656 29.480469 90.644531 29.605469 91.148438 29.4375 L 96.277344 27.730469 C 96.75 27.574219 97.183594 27.300781 97.542969 26.949219 L 107.210938 17.277344 L 101.546875 11.613281 Z M 87.46875 11.019531 C 84.40625 11.019531 81.921875 13.503906 81.921875 16.566406 L 81.921875 31.359375 C 81.921875 34.417969 84.40625 36.902344 87.46875 36.902344 L 102.257812 36.902344 C 105.320312 36.902344 107.804688 34.417969 107.804688 31.359375 L 107.804688 25.8125 C 107.804688 24.789062 106.976562 23.960938 105.957031 23.960938 C 104.933594 23.960938 104.105469 24.789062 104.105469 25.8125 L 104.105469 31.359375 C 104.105469 32.378906 103.28125 33.207031 102.257812 33.207031 L 87.46875 33.207031 C 86.445312 33.207031 85.617188 32.378906 85.617188 31.359375 L 85.617188 16.566406 C 85.617188 15.542969 86.445312 14.71875 87.46875 14.71875 L 93.011719 14.71875 C 94.035156 14.71875 94.863281 13.890625 94.863281 12.867188 C 94.863281 11.847656 94.035156 11.019531 93.011719 11.019531 Z M 87.46875 11.019531 " fill-opacity="1" fill-rule="nonzero"/></g><g fill="#ffffff" fill-opacity="1"><g transform="translate(0.493421, 24.294574)"><g><path d="M 18.09375 0 C 17.882812 1.601562 16.976562 2.859375 15.375 3.765625 C 13.9375 4.554688 12.132812 4.953125 9.96875 4.953125 C 7.082031 4.953125 4.910156 4.128906 3.453125 2.484375 C 2.367188 1.242188 1.828125 -0.269531 1.828125 -2.0625 C 1.828125 -3.4375 2.148438 -4.640625 2.796875 -5.671875 L 5.921875 -6.3125 C 5.222656 -5.132812 4.875 -3.890625 4.875 -2.578125 C 4.875 -1.117188 5.3125 0 6.1875 0.78125 C 7.0625 1.582031 8.320312 1.984375 9.96875 1.984375 C 12.550781 1.984375 14.117188 1.320312 14.671875 0 L 12.171875 0 L 13.8125 -3.15625 L 18.171875 -3.15625 L 18.171875 0 Z M 8.21875 10.734375 C 7.695312 10.734375 7.28125 10.570312 6.96875 10.25 C 6.65625 9.925781 6.5 9.503906 6.5 8.984375 C 6.5 8.472656 6.65625 8.0625 6.96875 7.75 C 7.28125 7.4375 7.695312 7.28125 8.21875 7.28125 C 8.738281 7.28125 9.148438 7.429688 9.453125 7.734375 C 9.765625 8.046875 9.921875 8.460938 9.921875 8.984375 C 9.921875 10.148438 9.351562 10.734375 8.21875 10.734375 Z M 12.25 10.734375 C 11.726562 10.734375 11.304688 10.578125 10.984375 10.265625 C 10.671875 9.953125 10.515625 9.523438 10.515625 8.984375 C 10.515625 7.847656 11.09375 7.28125 12.25 7.28125 C 12.769531 7.28125 13.179688 7.429688 13.484375 7.734375 C 13.785156 8.046875 13.9375 8.460938 13.9375 8.984375 C 13.9375 10.148438 13.375 10.734375 12.25 10.734375 Z M 12.25 10.734375 "/></g></g></g><g fill="#ffffff" fill-opacity="1"><g transform="translate(18.118747, 24.294574)"><g><path d="M 3.390625 -7.203125 C 3.390625 -8.773438 3.878906 -10.003906 4.859375 -10.890625 C 5.710938 -11.648438 6.804688 -12.03125 8.140625 -12.03125 C 9.867188 -12.03125 11.210938 -11.394531 12.171875 -10.125 C 12.984375 -9.0625 13.390625 -7.695312 13.390625 -6.03125 C 13.390625 -4.101562 12.878906 -2.582031 11.859375 -1.46875 C 10.929688 -0.488281 9.753906 0 8.328125 0 C 6.929688 0 5.789062 -0.300781 4.90625 -0.90625 C 4.070312 -0.300781 3.0625 0 1.875 0 L -0.78125 0 L -0.78125 -3.15625 L 1.5625 -3.15625 C 2.226562 -3.15625 2.695312 -3.296875 2.96875 -3.578125 C 3.25 -3.867188 3.390625 -4.359375 3.390625 -5.046875 Z M 6.6875 -4.625 C 6.6875 -3.644531 7.195312 -3.15625 8.21875 -3.15625 C 9.507812 -3.15625 10.15625 -4.148438 10.15625 -6.140625 C 10.15625 -8.035156 9.484375 -8.984375 8.140625 -8.984375 C 7.171875 -8.984375 6.6875 -8.410156 6.6875 -7.265625 Z M 6.6875 -4.625 "/></g></g></g><g fill="#ffffff" fill-opacity="1"><g transform="translate(33.472364, 24.294574)"><g><path d="M 7.15625 0 C 5.570312 0 4.34375 -0.503906 3.46875 -1.515625 C 2.71875 -2.378906 2.34375 -3.5 2.34375 -4.875 L 2.34375 -15.125 L 5.640625 -16.84375 L 5.640625 -5.046875 C 5.640625 -4.359375 5.773438 -3.867188 6.046875 -3.578125 C 6.328125 -3.296875 6.800781 -3.15625 7.46875 -3.15625 L 9.8125 -3.15625 L 9.8125 0 Z M 7.15625 0 "/></g></g></g><g fill="#ffffff" fill-opacity="1"><g transform="translate(42.506969, 24.294574)"><g><path d="M 17.046875 -3.15625 L 19.40625 -3.15625 L 19.40625 0 L 16.734375 0 C 15.441406 0 14.378906 -0.347656 13.546875 -1.046875 C 12.710938 -0.347656 11.632812 0 10.3125 0 L 7.03125 0 C 6.4375 0 5.878906 -0.0859375 5.359375 -0.265625 C 4.816406 -0.0859375 4.257812 0 3.6875 0 L -0.78125 0 L -0.78125 -3.15625 L 1.875 -3.15625 C 1.582031 -3.800781 1.4375 -4.507812 1.4375 -5.28125 C 1.4375 -6.351562 1.722656 -7.253906 2.296875 -7.984375 C 2.734375 -9.453125 3.507812 -10.601562 4.625 -11.4375 C 5.75 -12.269531 7.050781 -12.6875 8.53125 -12.6875 C 10.519531 -12.6875 12.148438 -12.035156 13.421875 -10.734375 C 14.609375 -9.515625 15.203125 -7.9375 15.203125 -6 L 15.203125 -5.046875 C 15.203125 -4.359375 15.34375 -3.867188 15.625 -3.578125 C 15.914062 -3.296875 16.390625 -3.15625 17.046875 -3.15625 Z M 10.265625 -3.15625 C 10.910156 -3.15625 11.347656 -3.289062 11.578125 -3.5625 C 11.816406 -3.832031 11.9375 -4.332031 11.9375 -5.0625 L 11.9375 -6 C 11.9375 -7.101562 11.617188 -7.984375 10.984375 -8.640625 C 10.347656 -9.304688 9.503906 -9.640625 8.453125 -9.640625 C 7.742188 -9.640625 7.128906 -9.484375 6.609375 -9.171875 C 7.421875 -8.921875 8.066406 -8.445312 8.546875 -7.75 C 9.023438 -7.050781 9.265625 -6.226562 9.265625 -5.28125 C 9.265625 -4.507812 9.117188 -3.800781 8.828125 -3.15625 Z M 5.359375 -3.390625 C 6.472656 -3.753906 7.03125 -4.476562 7.03125 -5.5625 C 7.03125 -6.101562 6.875 -6.535156 6.5625 -6.859375 C 6.257812 -7.179688 5.859375 -7.34375 5.359375 -7.34375 C 4.847656 -7.34375 4.441406 -7.179688 4.140625 -6.859375 C 3.835938 -6.535156 3.6875 -6.101562 3.6875 -5.5625 C 3.6875 -4.476562 4.242188 -3.753906 5.359375 -3.390625 Z M 5.359375 -3.390625 "/></g></g></g><g fill="#ffffff" fill-opacity="1"><g transform="translate(61.124548, 24.294574)"><g><path d="M 3.390625 -7.203125 C 3.390625 -8.773438 3.878906 -10.003906 4.859375 -10.890625 C 5.710938 -11.648438 6.804688 -12.03125 8.140625 -12.03125 C 9.867188 -12.03125 11.210938 -11.394531 12.171875 -10.125 C 12.984375 -9.0625 13.390625 -7.695312 13.390625 -6.03125 C 13.390625 -4.101562 12.878906 -2.582031 11.859375 -1.46875 C 10.929688 -0.488281 9.753906 0 8.328125 0 C 6.929688 0 5.789062 -0.300781 4.90625 -0.90625 C 4.070312 -0.300781 3.0625 0 1.875 0 L -0.78125 0 L -0.78125 -3.15625 L 1.5625 -3.15625 C 2.226562 -3.15625 2.695312 -3.296875 2.96875 -3.578125 C 3.25 -3.867188 3.390625 -4.359375 3.390625 -5.046875 Z M 6.6875 -4.625 C 6.6875 -3.644531 7.195312 -3.15625 8.21875 -3.15625 C 9.507812 -3.15625 10.15625 -4.148438 10.15625 -6.140625 C 10.15625 -8.035156 9.484375 -8.984375 8.140625 -8.984375 C 7.171875 -8.984375 6.6875 -8.410156 6.6875 -7.265625 Z M 6.6875 -4.625 "/></g></g></g><g clip-path="url(#92ea8cbd8a)"><g mask="url(#5ac1c0b5b4)"><g transform="matrix(1, 0, 0, 1, 18, 27)"><g clip-path="url(#d703403516)"><g clip-path="url(#8cc080352d)"><g fill="#ffffff" fill-opacity="1"><g transform="translate(0.934091, 7.289484)"><g><path d="M 1.296875 0 L 0.78125 0 L 0.78125 -6.09375 L 1.453125 -6.453125 L 1.453125 -4.078125 C 1.765625 -4.472656 2.203125 -4.671875 2.765625 -4.671875 C 3.453125 -4.671875 3.984375 -4.421875 4.359375 -3.921875 C 4.691406 -3.515625 4.859375 -2.992188 4.859375 -2.359375 C 4.859375 -1.535156 4.617188 -0.894531 4.140625 -0.4375 C 3.765625 -0.0625 3.296875 0.125 2.734375 0.125 C 2.148438 0.125 1.695312 -0.078125 1.375 -0.484375 Z M 1.453125 -3.328125 L 1.453125 -1.15625 C 1.535156 -0.9375 1.6875 -0.757812 1.90625 -0.625 C 2.132812 -0.5 2.382812 -0.4375 2.65625 -0.4375 C 3.09375 -0.4375 3.445312 -0.601562 3.71875 -0.9375 C 4 -1.269531 4.140625 -1.710938 4.140625 -2.265625 C 4.140625 -2.878906 3.984375 -3.351562 3.671875 -3.6875 C 3.410156 -3.96875 3.078125 -4.109375 2.671875 -4.109375 C 2.410156 -4.109375 2.164062 -4.035156 1.9375 -3.890625 C 1.707031 -3.742188 1.546875 -3.554688 1.453125 -3.328125 Z M 1.453125 -3.328125 "/></g></g></g></g><g fill="#ffffff" fill-opacity="1"><g transform="translate(6.272006, 7.289484)"><g><path d="M 4.421875 -4.546875 L 2.4375 0.6875 C 2.144531 1.5 1.734375 1.90625 1.203125 1.90625 C 0.867188 1.90625 0.535156 1.785156 0.203125 1.546875 L 0.421875 1.1875 C 0.648438 1.3125 0.847656 1.375 1.015625 1.375 C 1.347656 1.375 1.640625 1.0625 1.890625 0.4375 L 2.078125 0 L 1.90625 0 L 0.15625 -4.546875 L 0.859375 -4.546875 L 2.296875 -0.6875 L 3.703125 -4.546875 Z M 4.421875 -4.546875 "/></g></g></g><g fill="#ffffff" fill-opacity="1"><g transform="translate(10.848791, 7.289484)"><g/></g></g><g fill="#ffffff" fill-opacity="1"><g transform="translate(13.257028, 7.289484)"><g><path d="M 4.34375 0 L 3.328125 0 L 3.234375 -0.4375 C 2.796875 -0.0625 2.347656 0.125 1.890625 0.125 C 0.878906 0.125 0.375 -0.367188 0.375 -1.359375 C 0.375 -1.835938 0.585938 -2.21875 1.015625 -2.5 C 1.441406 -2.78125 2.070312 -2.921875 2.90625 -2.921875 L 3.109375 -2.921875 L 3.109375 -2.9375 C 3.109375 -3.21875 3.046875 -3.410156 2.921875 -3.515625 C 2.804688 -3.628906 2.59375 -3.6875 2.28125 -3.6875 C 1.84375 -3.6875 1.441406 -3.546875 1.078125 -3.265625 C 0.953125 -3.484375 0.835938 -3.703125 0.734375 -3.921875 C 1.109375 -4.210938 1.4375 -4.410156 1.71875 -4.515625 C 2.007812 -4.617188 2.351562 -4.671875 2.75 -4.671875 C 3.8125 -4.671875 4.34375 -4.003906 4.34375 -2.671875 Z M 3.078125 -2.140625 L 2.921875 -2.140625 C 2.546875 -2.140625 2.238281 -2.070312 2 -1.9375 C 1.769531 -1.8125 1.65625 -1.632812 1.65625 -1.40625 C 1.65625 -1 1.832031 -0.796875 2.1875 -0.796875 C 2.414062 -0.796875 2.613281 -0.859375 2.78125 -0.984375 C 2.945312 -1.109375 3.046875 -1.269531 3.078125 -1.46875 Z M 3.078125 -2.140625 "/></g></g></g><g clip-path="url(#6008fbeda4)"><g fill="#ffffff" fill-opacity="1"><g transform="translate(18.284481, 7.289484)"><g><path d="M 1.6875 0 L 0.65625 0 L 0.65625 -5.75 L 1.921875 -6.453125 L 1.921875 -4.03125 C 2.066406 -4.25 2.265625 -4.414062 2.515625 -4.53125 C 2.710938 -4.625 2.929688 -4.671875 3.171875 -4.671875 C 3.847656 -4.671875 4.375 -4.441406 4.75 -3.984375 C 5.09375 -3.578125 5.265625 -3.035156 5.265625 -2.359375 C 5.265625 -1.492188 5.015625 -0.835938 4.515625 -0.390625 C 4.128906 -0.046875 3.648438 0.125 3.078125 0.125 C 2.523438 0.125 2.09375 -0.0664062 1.78125 -0.453125 Z M 1.921875 -2.71875 L 1.921875 -1.625 C 1.941406 -1.382812 2.039062 -1.179688 2.21875 -1.015625 C 2.40625 -0.847656 2.625 -0.765625 2.875 -0.765625 C 3.195312 -0.765625 3.453125 -0.894531 3.640625 -1.15625 C 3.828125 -1.425781 3.921875 -1.796875 3.921875 -2.265625 C 3.921875 -2.722656 3.832031 -3.082031 3.65625 -3.34375 C 3.476562 -3.613281 3.238281 -3.75 2.9375 -3.75 C 2.65625 -3.75 2.414062 -3.648438 2.21875 -3.453125 C 2.019531 -3.253906 1.921875 -3.007812 1.921875 -2.71875 Z M 1.921875 -2.71875 "/></g></g></g></g><g clip-path="url(#18d9738603)"><g fill="#ffffff" fill-opacity="1"><g transform="translate(23.902809, 7.289484)"><g><path d="M 3.921875 0 L 3.75 -0.484375 C 3.632812 -0.304688 3.457031 -0.160156 3.21875 -0.046875 C 2.976562 0.0664062 2.734375 0.125 2.484375 0.125 C 1.765625 0.125 1.21875 -0.113281 0.84375 -0.59375 C 0.53125 -0.988281 0.375 -1.492188 0.375 -2.109375 C 0.375 -2.984375 0.628906 -3.660156 1.140625 -4.140625 C 1.523438 -4.492188 1.984375 -4.671875 2.515625 -4.671875 C 2.972656 -4.671875 3.359375 -4.539062 3.671875 -4.28125 L 3.671875 -5.734375 L 4.9375 -6.4375 L 4.9375 0 Z M 3.671875 -1.734375 L 3.671875 -3 C 3.628906 -3.21875 3.523438 -3.398438 3.359375 -3.546875 C 3.191406 -3.691406 3 -3.765625 2.78125 -3.765625 C 2.445312 -3.765625 2.175781 -3.628906 1.96875 -3.359375 C 1.769531 -3.097656 1.671875 -2.738281 1.671875 -2.28125 C 1.671875 -1.289062 1.992188 -0.796875 2.640625 -0.796875 C 2.878906 -0.796875 3.101562 -0.890625 3.3125 -1.078125 C 3.519531 -1.265625 3.640625 -1.484375 3.671875 -1.734375 Z M 3.671875 -1.734375 "/></g></g></g></g><g fill="#ffffff" fill-opacity="1"><g transform="translate(29.521138, 7.289484)"><g><path d="M 3.328125 -3.453125 C 3.003906 -3.660156 2.632812 -3.765625 2.21875 -3.765625 C 1.894531 -3.765625 1.734375 -3.628906 1.734375 -3.359375 C 1.734375 -3.097656 1.953125 -2.914062 2.390625 -2.8125 C 2.921875 -2.675781 3.285156 -2.523438 3.484375 -2.359375 C 3.765625 -2.117188 3.90625 -1.757812 3.90625 -1.28125 C 3.90625 -0.851562 3.753906 -0.507812 3.453125 -0.25 C 3.148438 0 2.738281 0.125 2.21875 0.125 C 1.488281 0.125 0.875 -0.0820312 0.375 -0.5 L 0.84375 -1.203125 C 1.1875 -0.929688 1.601562 -0.796875 2.09375 -0.796875 C 2.289062 -0.796875 2.445312 -0.84375 2.5625 -0.9375 C 2.6875 -1.03125 2.75 -1.148438 2.75 -1.296875 C 2.75 -1.578125 2.507812 -1.765625 2.03125 -1.859375 C 1.019531 -2.046875 0.515625 -2.535156 0.515625 -3.328125 C 0.515625 -3.710938 0.664062 -4.03125 0.96875 -4.28125 C 1.28125 -4.539062 1.671875 -4.671875 2.140625 -4.671875 C 2.773438 -4.671875 3.328125 -4.484375 3.796875 -4.109375 Z M 3.328125 -3.453125 "/></g></g></g><g fill="#ffffff" fill-opacity="1"><g transform="translate(33.80749, 7.289484)"><g><path d="M 4.84375 -4.546875 C 4.582031 -3.796875 4.21875 -2.789062 3.75 -1.53125 C 3.40625 -0.59375 3.132812 0.132812 2.9375 0.65625 C 2.625 1.488281 2.1875 1.90625 1.625 1.90625 C 1.1875 1.90625 0.734375 1.71875 0.265625 1.34375 C 0.390625 1.113281 0.5 0.910156 0.59375 0.734375 C 0.84375 0.898438 1.0625 0.984375 1.25 0.984375 C 1.519531 0.984375 1.765625 0.65625 1.984375 0 L 1.75 0 L 0.15625 -4.546875 L 1.40625 -4.546875 C 1.476562 -4.328125 1.59375 -3.984375 1.75 -3.515625 L 1.796875 -3.359375 C 2.085938 -2.484375 2.296875 -1.84375 2.421875 -1.4375 L 3.578125 -4.546875 Z M 4.84375 -4.546875 "/></g></g></g><g fill="#ffffff" fill-opacity="1"><g transform="translate(38.804896, 7.289484)"><g><path d="M 1.890625 -4.109375 C 2.265625 -4.484375 2.734375 -4.671875 3.296875 -4.671875 C 3.679688 -4.671875 4.019531 -4.585938 4.3125 -4.421875 C 4.613281 -4.253906 4.820312 -4.035156 4.9375 -3.765625 C 5.082031 -4.035156 5.3125 -4.253906 5.625 -4.421875 C 5.9375 -4.585938 6.273438 -4.671875 6.640625 -4.671875 C 7.710938 -4.671875 8.25 -4.019531 8.25 -2.71875 L 8.25 0 L 6.96875 0 L 6.96875 -2.390625 C 6.96875 -2.835938 6.898438 -3.148438 6.765625 -3.328125 C 6.640625 -3.515625 6.425781 -3.609375 6.125 -3.609375 C 5.675781 -3.609375 5.316406 -3.429688 5.046875 -3.078125 L 5.046875 0 L 3.78125 0 L 3.78125 -2.53125 C 3.78125 -2.914062 3.707031 -3.191406 3.5625 -3.359375 C 3.425781 -3.523438 3.191406 -3.609375 2.859375 -3.609375 C 2.648438 -3.609375 2.457031 -3.578125 2.28125 -3.515625 C 2.101562 -3.453125 1.988281 -3.378906 1.9375 -3.296875 L 1.9375 0 L 0.6875 0 L 0.6875 -4.546875 L 1.75 -4.546875 L 1.84375 -4.109375 Z M 1.890625 -4.109375 "/></g></g></g><g fill="#ffffff" fill-opacity="1"><g transform="translate(47.678052, 7.289484)"><g><path d="M 2.640625 -4.671875 C 3.390625 -4.671875 3.972656 -4.40625 4.390625 -3.875 C 4.734375 -3.4375 4.90625 -2.898438 4.90625 -2.265625 C 4.90625 -1.523438 4.648438 -0.921875 4.140625 -0.453125 C 3.710938 -0.0664062 3.210938 0.125 2.640625 0.125 C 1.984375 0.125 1.429688 -0.125 0.984375 -0.625 C 0.578125 -1.070312 0.375 -1.617188 0.375 -2.265625 C 0.375 -2.992188 0.597656 -3.585938 1.046875 -4.046875 C 1.453125 -4.460938 1.984375 -4.671875 2.640625 -4.671875 Z M 2.640625 -0.828125 C 3.285156 -0.828125 3.609375 -1.304688 3.609375 -2.265625 C 3.609375 -3.265625 3.285156 -3.765625 2.640625 -3.765625 C 1.992188 -3.765625 1.671875 -3.265625 1.671875 -2.265625 C 1.671875 -1.304688 1.992188 -0.828125 2.640625 -0.828125 Z M 2.640625 -0.828125 "/></g></g></g><g clip-path="url(#b6e917d1d8)"><g fill="#ffffff" fill-opacity="1"><g transform="translate(52.965891, 7.289484)"><g><path d="M 0.6875 -5.765625 L 1.9375 -6.453125 L 1.9375 -4 C 2.050781 -4.207031 2.273438 -4.382812 2.609375 -4.53125 C 2.828125 -4.625 3.03125 -4.671875 3.21875 -4.671875 C 3.800781 -4.671875 4.222656 -4.507812 4.484375 -4.1875 C 4.753906 -3.875 4.890625 -3.367188 4.890625 -2.671875 L 4.890625 0 L 3.625 0 L 3.625 -2.625 C 3.625 -3.28125 3.34375 -3.609375 2.78125 -3.609375 C 2.375 -3.609375 2.09375 -3.492188 1.9375 -3.265625 L 1.9375 0 L 0.6875 0 Z M 0.6875 -5.765625 "/></g></g></g></g></g></g></g></g></svg>